{
	"asset":{
		"generator":"Khronos glTF Blender I/O v4.2.57",
		"version":"2.0"
	},
	"extensionsUsed":[
		"KHR_materials_specular"
	],
	"scene":0,
	"scenes":[
		{
			"name":"Scene",
			"nodes":[
				2
			]
		}
	],
	"nodes":[
		{
			"mesh":0,
			"name":"object_0"
		},
		{
			"mesh":1,
			"name":"object_2"
		},
		{
			"children":[
				0,
				1
			],
			"name":"Node_3"
		}
	],
	"materials":[
		{
			"emissiveTexture":{
				"index":0
			},
			"extensions":{
				"KHR_materials_specular":{
					"specularTexture":{
						"index":1
					}
				}
			},
			"name":"object_0",
			"normalTexture":{
				"index":2
			},
			"pbrMetallicRoughness":{
				"baseColorTexture":{
					"index":3
				},
				"metallicFactor":0.5,
				"metallicRoughnessTexture":{
					"index":4
				}
			}
		},
		{
			"alphaMode":"BLEND",
			"extensions":{
				"KHR_materials_specular":{
					"specularTexture":{
						"index":5
					}
				}
			},
			"name":"object_2",
			"normalTexture":{
				"index":6
			},
			"pbrMetallicRoughness":{
				"baseColorTexture":{
					"index":7
				},
				"metallicFactor":0.5,
				"metallicRoughnessTexture":{
					"index":8
				}
			}
		}
	],
	"meshes":[
		{
			"name":"Mesh_0",
			"primitives":[
				{
					"attributes":{
						"POSITION":0,
						"NORMAL":1,
						"TEXCOORD_0":2
					},
					"indices":3,
					"material":0
				}
			]
		},
		{
			"name":"Mesh_2",
			"primitives":[
				{
					"attributes":{
						"POSITION":4,
						"NORMAL":5,
						"TEXCOORD_0":6
					},
					"indices":7,
					"material":1
				}
			]
		}
	],
	"textures":[
		{
			"sampler":0,
			"source":0
		},
		{
			"sampler":0,
			"source":1
		},
		{
			"sampler":0,
			"source":2
		},
		{
			"sampler":0,
			"source":3
		},
		{
			"sampler":0,
			"source":4
		},
		{
			"sampler":0,
			"source":5
		},
		{
			"sampler":0,
			"source":6
		},
		{
			"sampler":0,
			"source":7
		},
		{
			"sampler":0,
			"source":8
		}
	],
	"images":[
		{
			"mimeType":"image/png",
			"name":"RGB_60e9c8dc78fa4f21b157420fe3d9d421_Headset_Emissive",
			"uri":"quest/RGB_60e9c8dc78fa4f21b157420fe3d9d421_Headset_Emissive.png"
		},
		{
			"mimeType":"image/png",
			"name":"RGB_983072ab83894d22b9e5bd1aa236583f_Headset_Specular",
			"uri":"quest/RGB_983072ab83894d22b9e5bd1aa236583f_Headset_Specular.png"
		},
		{
			"mimeType":"image/png",
			"name":"N_03865707594b45c9a7bb75e37c9b6526_Headset_Normal",
			"uri":"quest/N_03865707594b45c9a7bb75e37c9b6526_Headset_Normal.png"
		},
		{
			"mimeType":"image/png",
			"name":"RGB_01d1f57f75704aa1b7bd1dea640f9bf7_Headset_Diffuse",
			"uri":"quest/RGB_01d1f57f75704aa1b7bd1dea640f9bf7_Headset_Diffuse.png"
		},
		{
			"mimeType":"image/png",
			"name":"R_e6adc6e9c937424d95c420d21dd91008_Headset_Glossiness",
			"uri":"quest/R_e6adc6e9c937424d95c420d21dd91008_Headset_Glossiness.png"
		},
		{
			"mimeType":"image/png",
			"name":"RGB_8a9bd6c45b3349c3b03708429b990beb_Glass_Specular",
			"uri":"quest/RGB_8a9bd6c45b3349c3b03708429b990beb_Glass_Specular.png"
		},
		{
			"mimeType":"image/png",
			"name":"N_5c8c0d05e11d470483ed9017469a2a68_Glass_Normal",
			"uri":"quest/N_5c8c0d05e11d470483ed9017469a2a68_Glass_Normal.png"
		},
		{
			"mimeType":"image/png",
			"name":"RGB_ca6cec33c6614a518f1868241857936f_Glass_Diffuse-A_00d9f63e19a94d7a98e008ee5ac5ef8f_Glass_Opacity",
			"uri":"quest/RGB_ca6cec33c6614a518f1868241857936f_Glass_Diffuse-A_00d9f63e19a94d7a98e008ee5ac5ef8f_Glass_Opacity.png"
		},
		{
			"mimeType":"image/png",
			"name":"R_40f00f38a7644d7eba59f64c5a69fdca_Glass_Glossiness",
			"uri":"quest/R_40f00f38a7644d7eba59f64c5a69fdca_Glass_Glossiness.png"
		}
	],
	"accessors":[
		{
			"bufferView":0,
			"componentType":5126,
			"count":292038,
			"max":[
				11.161262512207031,
				14.90261173248291,
				10.911249160766602
			],
			"min":[
				-11.161199569702148,
				-6.244190216064453,
				-20.390100479125977
			],
			"type":"VEC3"
		},
		{
			"bufferView":1,
			"componentType":5126,
			"count":292038,
			"type":"VEC3"
		},
		{
			"bufferView":2,
			"componentType":5126,
			"count":292038,
			"type":"VEC2"
		},
		{
			"bufferView":3,
			"componentType":5125,
			"count":292038,
			"type":"SCALAR"
		},
		{
			"bufferView":4,
			"componentType":5126,
			"count":31680,
			"max":[
				8.771010398864746,
				3.236605167388916,
				9.906984329223633
			],
			"min":[
				-8.770999908447266,
				-5.092929840087891,
				3.1204800605773926
			],
			"type":"VEC3"
		},
		{
			"bufferView":5,
			"componentType":5126,
			"count":31680,
			"type":"VEC3"
		},
		{
			"bufferView":6,
			"componentType":5126,
			"count":31680,
			"type":"VEC2"
		},
		{
			"bufferView":7,
			"componentType":5123,
			"count":31680,
			"type":"SCALAR"
		}
	],
	"bufferViews":[
		{
			"buffer":0,
			"byteLength":3504456,
			"byteOffset":0,
			"target":34962
		},
		{
			"buffer":0,
			"byteLength":3504456,
			"byteOffset":3504456,
			"target":34962
		},
		{
			"buffer":0,
			"byteLength":2336304,
			"byteOffset":7008912,
			"target":34962
		},
		{
			"buffer":0,
			"byteLength":1168152,
			"byteOffset":9345216,
			"target":34963
		},
		{
			"buffer":0,
			"byteLength":380160,
			"byteOffset":10513368,
			"target":34962
		},
		{
			"buffer":0,
			"byteLength":380160,
			"byteOffset":10893528,
			"target":34962
		},
		{
			"buffer":0,
			"byteLength":253440,
			"byteOffset":11273688,
			"target":34962
		},
		{
			"buffer":0,
			"byteLength":63360,
			"byteOffset":11527128,
			"target":34963
		}
	],
	"samplers":[
		{
			"magFilter":9729,
			"minFilter":9987
		}
	],
	"buffers":[
		{
			"byteLength":11590488,
			"uri":"quest%202.bin"
		}
	]
}
